<svg xmlns="http://www.w3.org/2000/svg" width="44" height="28"><path d="M.529-9.79h10.054v8.467H.529z" style="opacity:.003;fill:#000;fill-opacity:1;stroke-width:.348723" transform="matrix(4.3763 0 0 3.30709 -2.316 4.375)"/><path d="M21.431-19.579h5.821v5.821h-5.821z" style="opacity:.003;fill:#000;fill-opacity:1;stroke-width:.220007" transform="translate(-70 49)scale(3.77953)"/><path d="M25.531-17.992a.13.13 0 0 0-.094.04l-1.097 1.096-1.098-1.097a.13.13 0 0 0-.186 0 .13.13 0 0 0 0 .186l1.1 1.098-1.098 1.098a.13.13 0 0 0 0 .186c.052.05.134.05.186 0l1.098-1.097 1.097 1.097a.13.13 0 0 0 .187 0 .13.13 0 0 0 0-.186l-1.098-1.098 1.097-1.098a.13.13 0 0 0 0-.186.13.13 0 0 0-.094-.039" class="ColorScheme-Text" style="color:#232629;fill:#000;fill-opacity:1" transform="translate(-70 49)scale(3.77953)"/><path d="M-50-96v28h44v-28z" style="color:#232629;opacity:1;fill:#c32d1e;fill-opacity:1;stroke-width:3.804;stroke-miterlimit:4;stroke-dasharray:none" transform="translate(50 96)"/><path d="M27.517-25.135h5.821v5.821h-5.821z" style="opacity:.003;fill:#000;fill-opacity:1;stroke-width:.220007" transform="translate(-93 98)scale(3.77953)"/><path d="M31.617-23.548a.13.13 0 0 0-.094.039l-1.097 1.097-1.098-1.097a.13.13 0 0 0-.186 0 .13.13 0 0 0 0 .185l1.099 1.099-1.097 1.098a.13.13 0 0 0 0 .186c.051.05.134.05.185 0l1.098-1.097 1.097 1.097a.13.13 0 0 0 .188 0 .13.13 0 0 0 0-.186l-1.098-1.098 1.096-1.099a.13.13 0 0 0 0-.185.13.13 0 0 0-.093-.039" class="ColorScheme-Text" style="color:#232629;fill:#fff;fill-opacity:1" transform="translate(-93 98)scale(3.77953)"/><path d="M.53-30.427v8.467h10.053v-8.467z" style="color:#232629;fill:#9b2319;fill-opacity:1;stroke-width:.999918;stroke-miterlimit:4;stroke-dasharray:none" transform="matrix(4.3763 0 0 3.30709 -2.316 128.625)"/><path d="M27.517-25.135h5.821v5.821h-5.821z" style="opacity:.003;fill:#000;fill-opacity:1;stroke-width:.220007" transform="translate(-93 126)scale(3.77953)"/><path d="M31.617-23.548a.13.13 0 0 0-.094.039l-1.097 1.097-1.098-1.097a.13.13 0 0 0-.186 0 .13.13 0 0 0 0 .185l1.099 1.099-1.097 1.098a.13.13 0 0 0 0 .186c.051.05.134.05.185 0l1.098-1.097 1.097 1.097a.13.13 0 0 0 .188 0 .13.13 0 0 0 0-.186l-1.098-1.098 1.096-1.099a.13.13 0 0 0 0-.185.13.13 0 0 0-.093-.039" class="ColorScheme-Text" style="color:#232629;fill:#fff;fill-opacity:1" transform="translate(-93 126)scale(3.77953)"/></svg>