<svg xmlns="http://www.w3.org/2000/svg" width="44" height="28"><path d="M.529-9.79h10.054v8.467H.529z" style="opacity:.003;fill:#000;fill-opacity:1;stroke-width:.348723" transform="matrix(4.3763 0 0 3.30709 -2.316 32.375)"/><path d="M21.431-19.579h5.821v5.821h-5.821z" style="opacity:.003;fill:#000;fill-opacity:1;stroke-width:.220007" transform="translate(-70 77)scale(3.77953)"/><path d="M81-89c-1.108 0-2 .892-2 2v6c0 1.108.892 2 2 2h6c1.108 0 2-.892 2-2v-6c0-1.108-.892-2-2-2zm0 1h6c.554 0 1 .446 1 1v6c0 .554-.446 1-1 1h-6c-.554 0-1-.446-1-1v-6c0-.554.446-1 1-1" class="ColorScheme-Text" style="color:#232629;fill:#000;fill-opacity:1" transform="translate(-62 98)"/><g style="fill:#646464;fill-opacity:1"><path d="M.529-9.79h10.054v8.467H.529z" style="opacity:.003;fill:#646464;fill-opacity:1;stroke-width:.348723" transform="matrix(4.3763 0 0 3.30709 41.684 32.375)"/></g><g style="opacity:1"><path d="M21.431-19.579h5.821v5.821h-5.821z" style="opacity:.003;fill:#000;fill-opacity:1;stroke-width:.220007" transform="translate(-26 77)scale(3.77953)"/><path d="M81-89c-1.108 0-2 .892-2 2v6c0 1.108.892 2 2 2h6c1.108 0 2-.892 2-2v-6c0-1.108-.892-2-2-2zm0 1h6c.554 0 1 .446 1 1v6c0 .554-.446 1-1 1h-6c-.554 0-1-.446-1-1v-6c0-.554.446-1 1-1" class="ColorScheme-Text" style="color:#232629;opacity:.2;fill:#000;fill-opacity:1" transform="translate(-18 98)"/></g></svg>