<svg xmlns="http://www.w3.org/2000/svg" width="44" height="28"><g style="fill:#646464;fill-opacity:1"><path d="M.529-9.79h10.054v8.467H.529z" style="opacity:.003;fill:#646464;fill-opacity:1;stroke-width:.348723" transform="matrix(4.3763 0 0 3.30709 -2.316 32.375)"/></g><g style="opacity:1"><path d="M21.431-19.579h5.821v5.821h-5.821z" style="opacity:.003;fill:#000;fill-opacity:1;stroke-width:.220007" transform="translate(-70 77)scale(3.77953)"/><path d="M81-89c-1.108 0-2 .892-2 2v6c0 1.108.892 2 2 2h6c1.108 0 2-.892 2-2v-6c0-1.108-.892-2-2-2zm0 1h6c.554 0 1 .446 1 1v6c0 .554-.446 1-1 1h-6c-.554 0-1-.446-1-1v-6c0-.554.446-1 1-1" class="ColorScheme-Text" style="color:#232629;opacity:.2;fill:#000;fill-opacity:1" transform="translate(-62 98)"/></g><path d="M88 0h44v28H88z" style="opacity:.00100002;fill:#646464;fill-opacity:1;stroke-width:1.32665" transform="translate(-44)"/><path d="M21.431-19.579h5.821v5.821h-5.821z" style="opacity:.003;fill:#000;fill-opacity:1;stroke-width:.220007" transform="translate(-26 77)scale(3.77953)"/><path d="M23.548-17.992a.53.53 0 0 0-.53.53v1.587c0 .293.237.53.53.53h1.587c.294 0 .53-.237.53-.53v-1.587a.53.53 0 0 0-.53-.53zm0 .265h1.587c.147 0 .265.118.265.264v1.588a.264.264 0 0 1-.265.265h-1.587a.264.264 0 0 1-.265-.265v-1.587c0-.147.118-.265.265-.265" class="ColorScheme-Text" style="color:#232629;opacity:.2;fill:#000;fill-opacity:1;stroke-width:.264583" transform="translate(-26 77)scale(3.77953)"/></svg>