<svg xmlns="http://www.w3.org/2000/svg" width="44" height="28"><path d="M.529-19.844h10.054v8.467H.529z" class="ColorScheme-Text" style="color:#232629;opacity:.1;fill:#000;fill-opacity:1" transform="matrix(4.3763 0 0 3.30709 -2.316 37.625)"/><path d="M27.517-25.135h5.821v5.821h-5.821z" style="opacity:.003;fill:#000;fill-opacity:1;stroke-width:.220007" transform="translate(-93 70)scale(3.77953)"/><path d="M29.633-23.548a.53.53 0 0 0-.529.53v1.587c0 .293.236.529.53.529h1.587c.293 0 .529-.236.529-.53v-1.587a.53.53 0 0 0-.53-.529zm0 .265h1.588c.146 0 .264.118.264.264v1.588a.264.264 0 0 1-.264.264h-1.588a.264.264 0 0 1-.264-.264v-1.588c0-.146.118-.264.264-.264" class="ColorScheme-Text" style="color:#232629;fill:#000;fill-opacity:1;stroke-width:.264583" transform="translate(-93 70)scale(3.77953)"/><path d="M.529-30.427h10.054v8.467H.529z" class="ColorScheme-Text" style="color:#232629;opacity:.25;fill:#000;fill-opacity:1" transform="matrix(4.3763 0 0 3.30709 -2.316 100.625)"/><path d="M27.517-25.135h5.821v5.821h-5.821z" style="opacity:.003;fill:#000;fill-opacity:1;stroke-width:.220007" transform="translate(-93 98)scale(3.77953)"/><path d="M29.633-23.548a.53.53 0 0 0-.529.53v1.587c0 .293.236.529.53.529h1.587c.293 0 .529-.236.529-.53v-1.587a.53.53 0 0 0-.53-.529zm0 .265h1.588c.146 0 .264.118.264.264v1.588a.264.264 0 0 1-.264.264h-1.588a.264.264 0 0 1-.264-.264v-1.588c0-.146.118-.264.264-.264" class="ColorScheme-Text" style="color:#232629;fill:#000;fill-opacity:1;stroke-width:.264583" transform="translate(-93 98)scale(3.77953)"/></svg>