<svg xmlns="http://www.w3.org/2000/svg" width="44" height="28"><path d="M.529-9.79h10.054v8.467H.529z" style="opacity:.003;fill:#000;fill-opacity:1;stroke-width:.348723" transform="matrix(4.3763 0 0 3.30709 -46.316 32.375)"/><path d="M21.431-19.579h5.821v5.821h-5.821z" style="opacity:.003;fill:#000;fill-opacity:1;stroke-width:.220007" transform="translate(-114 77)scale(3.77953)"/><path d="M83-89a1.99 1.99 0 0 0-1.725 1H86c1.108 0 2 .892 2 2v4.725A1.99 1.99 0 0 0 89-83v-3c0-1.662-1.338-3-3-3zm-2 2c-1.108 0-2 .892-2 2v4c0 1.108.892 2 2 2h4c1.108 0 2-.892 2-2v-4c0-1.108-.892-2-2-2zm0 1h4c.554 0 1 .446 1 1v4c0 .554-.446 1-1 1h-4c-.554 0-1-.446-1-1v-4c0-.554.446-1 1-1" class="ColorScheme-Text" style="color:#232629;fill:#000;fill-opacity:1" transform="translate(-106 98)"/><path d="M.529-9.79h10.054v8.467H.529z" style="opacity:.003;fill:#000;fill-opacity:1;stroke-width:.348723" transform="matrix(4.3763 0 0 3.30709 -2.316 32.375)"/><g style="opacity:1"><path d="M21.431-19.579h5.821v5.821h-5.821z" style="opacity:.003;fill:#000;fill-opacity:1;stroke-width:.220007" transform="translate(-70 77)scale(3.77953)"/><path d="M83-89a1.99 1.99 0 0 0-1.725 1H86c1.108 0 2 .892 2 2v4.725A1.99 1.99 0 0 0 89-83v-3c0-1.662-1.338-3-3-3zm-2 2c-1.108 0-2 .892-2 2v4c0 1.108.892 2 2 2h4c1.108 0 2-.892 2-2v-4c0-1.108-.892-2-2-2zm0 1h4c.554 0 1 .446 1 1v4c0 .554-.446 1-1 1h-4c-.554 0-1-.446-1-1v-4c0-.554.446-1 1-1" class="ColorScheme-Text" style="color:#232629;opacity:.2;fill:#000;fill-opacity:1" transform="translate(-62 98)"/></g><path d="M.529-9.79h10.054v8.467H.529z" style="opacity:.003;fill:#000;fill-opacity:1;stroke-width:.348723" transform="matrix(4.3763 0 0 3.30709 41.684 32.375)"/><g style="opacity:1"><path d="M21.431-19.579h5.821v5.821h-5.821z" style="opacity:.003;fill:#000;fill-opacity:1;stroke-width:.220007" transform="translate(-26 77)scale(3.77953)"/><path d="M83-89a1.99 1.99 0 0 0-1.725 1H86c1.108 0 2 .892 2 2v4.725A1.99 1.99 0 0 0 89-83v-3c0-1.662-1.338-3-3-3zm-2 2c-1.108 0-2 .892-2 2v4c0 1.108.892 2 2 2h4c1.108 0 2-.892 2-2v-4c0-1.108-.892-2-2-2zm0 1h4c.554 0 1 .446 1 1v4c0 .554-.446 1-1 1h-4c-.554 0-1-.446-1-1v-4c0-.554.446-1 1-1" class="ColorScheme-Text" style="color:#232629;opacity:.2;fill:#000;fill-opacity:1" transform="translate(-18 98)"/></g></svg>