<svg xmlns="http://www.w3.org/2000/svg" width="22" height="22"><g transform="translate(44)"><path d="M-22 0H0v22h-22z" style="opacity:.00100002;fill:#050505;fill-opacity:1;stroke-width:1.001"/><path d="M-11 2a9 9 0 1 0 0 18 9 9 0 0 0 0-18m0 1.125a7.875 7.875 0 1 1 0 15.75 7.875 7.875 0 0 1 0-15.75m0 0" style="fill:#fff;fill-opacity:1;stroke-width:1.125"/><rect width="15.75" height="15.75" x="-18.875" y="3.125" rx="7.875" ry="7.875" style="fill:#bf616a;fill-opacity:.7;stroke:none;stroke-width:.39374"/><path d="M-6.804 13.727-9.532 11l2.727-2.727a1.039 1.039 0 0 0-1.468-1.469L-11 9.531l-2.727-2.727a1.038 1.038 0 1 0-1.469 1.469L-12.469 11l-2.727 2.727a1.038 1.038 0 0 0 1.469 1.469L-11 12.468l2.727 2.728a1.035 1.035 0 0 0 1.469 0 1.04 1.04 0 0 0 0-1.469" style="fill:#fff;fill-opacity:.799873;stroke-width:.021328"/></g><path d="M0 0h22v22H0z" style="opacity:.00100002;fill:#050505;fill-opacity:1;stroke-width:1.001"/><path d="M11 2a9 9 0 1 0 0 18 9 9 0 0 0 0-18m0 1.125a7.875 7.875 0 1 1 0 15.75 7.875 7.875 0 0 1 0-15.75m0 0" style="fill:#fff;fill-opacity:1;stroke-width:1.125"/><rect width="15.75" height="15.75" x="3.125" y="3.125" rx="7.875" ry="7.875" style="fill:#bf616a;fill-opacity:1;stroke:none;stroke-width:.39374"/><g transform="translate(0 22)"><path d="M0 0h22v22H0z" style="opacity:.00100002;fill:#050505;fill-opacity:1;stroke-width:1.001"/><path d="M10.9 2a9 9 0 1 0 0 18 9 9 0 0 0 0-18m0 1.125a7.875 7.875 0 1 1 0 15.75 7.875 7.875 0 0 1 0-15.75m0 0" style="fill:#fff;fill-opacity:1;stroke-width:1.125"/><rect width="15.75" height="15.75" x="3.025" y="3.125" rx="7.875" ry="7.875" style="fill:#bf616a;fill-opacity:.6;stroke:none;stroke-width:.39374"/></g><g transform="translate(44)"><path d="M-22 22H0v22h-22z" style="opacity:.00100002;fill:#050505;fill-opacity:1;stroke-width:1.001"/><path d="M-11 24a9 9 0 1 0 0 18 9 9 0 0 0 0-18m0 1.125a7.875 7.875 0 1 1 0 15.75 7.875 7.875 0 0 1 0-15.75m0 0" style="fill:#fff;fill-opacity:1;stroke-width:1.125"/><rect width="15.75" height="15.75" x="-18.875" y="25.125" rx="7.875" ry="7.875" style="fill:#bf616a;fill-opacity:.7;stroke:none;stroke-width:.39374"/><path d="M-6.804 35.727-9.532 33l2.727-2.727a1.039 1.039 0 0 0-1.468-1.469L-11 31.531l-2.727-2.727a1.038 1.038 0 1 0-1.469 1.469L-12.469 33l-2.727 2.727a1.038 1.038 0 0 0 1.469 1.469L-11 34.468l2.727 2.728a1.035 1.035 0 0 0 1.469 0 1.04 1.04 0 0 0 0-1.469" style="fill:#fff;fill-opacity:.799873;stroke-width:.021328"/></g></svg>