<svg xmlns="http://www.w3.org/2000/svg" width="22" height="22"><g transform="translate(-22)"><path d="M0 0h22v22H0z" style="opacity:.00100002;fill:#000;fill-opacity:1;fill-rule:nonzero;stroke:none;stroke-width:2;stroke-linecap:round;stroke-linejoin:round;stroke-miterlimit:4;stroke-dasharray:none;stroke-opacity:1"/><path d="M11 2a9 9 0 1 0 0 18 9 9 0 0 0 0-18m0 1.125a7.875 7.875 0 1 1 0 15.75 7.875 7.875 0 0 1 0-15.75m0 0" style="fill:#fff;fill-opacity:1;stroke-width:1.125"/><rect width="15.75" height="15.75" x="3.125" y="3.125" rx="7.875" ry="7.875" style="fill:#ebcb8b;fill-opacity:.6;stroke:none;stroke-width:.39374"/></g><g transform="translate(-22 -22)"><path d="M0 0h22v22H0z" style="opacity:.00100002;fill:#000;fill-opacity:1;fill-rule:nonzero;stroke:none;stroke-width:2;stroke-linecap:round;stroke-linejoin:round;stroke-miterlimit:4;stroke-dasharray:none;stroke-opacity:1"/><path d="M11 2a9 9 0 1 0 0 18 9 9 0 0 0 0-18m0 1.125a7.875 7.875 0 1 1 0 15.75 7.875 7.875 0 0 1 0-15.75m0 0" style="fill:#fff;fill-opacity:1;stroke-width:1.125"/><rect width="15.75" height="15.75" x="3.125" y="3.125" rx="7.875" ry="7.875" style="fill:#ebcb8b;fill-opacity:1;stroke:none;stroke-width:.39374"/></g><g transform="translate(22)"><path d="M-22-22H0V0h-22z" style="opacity:.00100002;fill:#000;fill-opacity:1;fill-rule:nonzero;stroke:none;stroke-width:2;stroke-linecap:round;stroke-linejoin:round;stroke-miterlimit:4;stroke-dasharray:none;stroke-opacity:1"/><path d="M-11-20a9 9 0 1 0 0 18 9 9 0 0 0 0-18m0 1.125a7.875 7.875 0 1 1 0 15.75 7.875 7.875 0 0 1 0-15.75m0 0" style="fill:#fff;fill-opacity:1;stroke-width:1.125"/><rect width="15.75" height="15.75" x="-18.875" y="-18.875" rx="7.875" ry="7.875" style="fill:#ebcb8b;fill-opacity:.75;stroke:none;stroke-width:.39374"/><rect width="10" height="2" x="-16" y="-12" ry="1" style="display:inline;opacity:1;fill:#fff;fill-opacity:.8;stroke:none;stroke-width:2.23606;stroke-linecap:round;stroke-linejoin:round;stroke-miterlimit:4;stroke-dasharray:none;stroke-opacity:1"/></g><path d="M0 0h22v22H0z" style="opacity:.00100002;fill:#000;fill-opacity:1;fill-rule:nonzero;stroke:none;stroke-width:2;stroke-linecap:round;stroke-linejoin:round;stroke-miterlimit:4;stroke-dasharray:none;stroke-opacity:1"/><path d="M11 2a9 9 0 1 0 0 18 9 9 0 0 0 0-18m0 1.125a7.875 7.875 0 1 1 0 15.75 7.875 7.875 0 0 1 0-15.75m0 0" style="fill:#fff;fill-opacity:1;stroke-width:1.125"/><rect width="15.75" height="15.75" x="3.125" y="3.125" rx="7.875" ry="7.875" style="fill:#ebcb8b;fill-opacity:.75;stroke:none;stroke-width:.39374"/><rect width="10" height="2" x="6" y="10" ry="1" style="display:inline;fill:#fff;fill-opacity:.8;stroke:none;stroke-width:2.23606;stroke-linecap:round;stroke-linejoin:round;stroke-miterlimit:4;stroke-dasharray:none;stroke-opacity:1"/><g transform="translate(22 -22)"><path d="M0 0h22v22H0z" style="opacity:.00100002;fill:#000;fill-opacity:1;fill-rule:nonzero;stroke:none;stroke-width:2;stroke-linecap:round;stroke-linejoin:round;stroke-miterlimit:4;stroke-dasharray:none;stroke-opacity:1"/><path d="M11 2a9 9 0 1 0 0 18 9 9 0 0 0 0-18m0 1.125a7.875 7.875 0 1 1 0 15.75 7.875 7.875 0 0 1 0-15.75m0 0" style="fill:#fff;fill-opacity:1;stroke-width:1.125"/><rect width="15.75" height="15.75" x="3.125" y="3.125" rx="7.875" ry="7.875" style="fill:#ebcb8b;fill-opacity:1;stroke:none;stroke-width:.39374"/><rect width="10" height="2" x="6" y="10" ry="1" style="display:inline;fill:#fff;fill-opacity:1;stroke:none;stroke-width:2.23606;stroke-linecap:round;stroke-linejoin:round;stroke-miterlimit:4;stroke-dasharray:none;stroke-opacity:1"/></g><g transform="translate(0 -22)"><path d="M22 22h22v22H22z" style="opacity:.00100002;fill:#000;fill-opacity:1;fill-rule:nonzero;stroke:none;stroke-width:2;stroke-linecap:round;stroke-linejoin:round;stroke-miterlimit:4;stroke-dasharray:none;stroke-opacity:1"/><path d="M33 24a9 9 0 1 0 0 18 9 9 0 0 0 0-18m0 1.125a7.875 7.875 0 1 1 0 15.75 7.875 7.875 0 0 1 0-15.75m0 0" style="fill:#fff;fill-opacity:1;stroke-width:1.125"/><rect width="15.75" height="15.75" x="25.125" y="25.125" rx="7.875" ry="7.875" style="fill:#ebcb8b;fill-opacity:1;stroke:none;stroke-width:.39374"/><rect width="10" height="2" x="28" y="32" ry="1" style="display:inline;fill:#fff;fill-opacity:1;stroke:none;stroke-width:2.23606;stroke-linecap:round;stroke-linejoin:round;stroke-miterlimit:4;stroke-dasharray:none;stroke-opacity:1"/></g></svg>