<svg xmlns="http://www.w3.org/2000/svg" width="22" height="22"><g transform="translate(44 22)"><path d="M-22-22H0V0h-22z" style="opacity:.00100002;fill:#000;fill-opacity:1;fill-rule:nonzero;stroke:none;stroke-width:2;stroke-linecap:round;stroke-linejoin:round;stroke-miterlimit:4;stroke-dasharray:none;stroke-opacity:1"/><path d="M-11-20a9 9 0 1 0 0 18 9 9 0 0 0 0-18m0 1.125a7.875 7.875 0 1 1 0 15.75 7.875 7.875 0 0 1 0-15.75m0 0" style="fill:#fff;fill-opacity:1;stroke-width:1.125"/><rect width="15.75" height="15.75" x="-18.875" y="-18.875" rx="7.875" ry="7.875" style="fill:#a3be8c;fill-opacity:.75;stroke:none;stroke-width:.39374"/><path fill-rule="evenodd" d="m-11.005-16-.028.002a.3.3 0 0 0-.169.077l-3.713 3.465a.26.26 0 0 0-.085.189c0 .07.03.139.084.19s.127.077.203.077h7.425c.077 0 .15-.027.204-.078a.26.26 0 0 0 .084-.19c0-.07-.03-.139-.085-.189L-10.8-15.92a.3.3 0 0 0-.206-.078z" style="fill:#fefefe;fill-opacity:.8;stroke-width:.0157624"/><path fill-rule="evenodd" d="m-10.995-6 .028-.002a.3.3 0 0 0 .169-.077l3.713-3.465A.26.26 0 0 0-7-9.733c0-.07-.03-.139-.084-.19A.3.3 0 0 0-7.287-10h-7.425a.3.3 0 0 0-.204.078.26.26 0 0 0-.084.19c0 .07.03.139.085.189L-11.2-6.08c.055.051.129.08.206.078z" style="fill:#fefefe;fill-opacity:.8;stroke-width:.0157622"/></g><path d="M0 0h22v22H0z" style="opacity:.00100002;fill:#000;fill-opacity:1;fill-rule:nonzero;stroke:none;stroke-width:2;stroke-linecap:round;stroke-linejoin:round;stroke-miterlimit:4;stroke-dasharray:none;stroke-opacity:1"/><path d="M11 2a9 9 0 1 0 0 18 9 9 0 0 0 0-18m0 1.125a7.875 7.875 0 1 1 0 15.75 7.875 7.875 0 0 1 0-15.75m0 0" style="fill:#fff;fill-opacity:1;stroke-width:1.125"/><rect width="15.75" height="15.75" x="3.125" y="3.125" rx="7.875" ry="7.875" style="fill:#a3be8c;fill-opacity:1;stroke:none;stroke-width:.39374"/><g transform="translate(0 22)"><path d="M0 0h22v22H0z" style="opacity:.00100002;fill:#000;fill-opacity:1;fill-rule:nonzero;stroke:none;stroke-width:2;stroke-linecap:round;stroke-linejoin:round;stroke-miterlimit:4;stroke-dasharray:none;stroke-opacity:1"/><path d="M11 2a9 9 0 1 0 0 18 9 9 0 0 0 0-18m0 1.125a7.875 7.875 0 1 1 0 15.75 7.875 7.875 0 0 1 0-15.75m0 0" style="fill:#fff;fill-opacity:1;stroke-width:1.125"/><rect width="15.75" height="15.75" x="3.125" y="3.125" rx="7.875" ry="7.875" style="fill:#a3be8c;fill-opacity:.6;stroke:none;stroke-width:.39374"/></g><g transform="translate(44 22)"><path d="M-22 0H0v22h-22z" style="opacity:.00100002;fill:#000;fill-opacity:1;fill-rule:nonzero;stroke:none;stroke-width:2;stroke-linecap:round;stroke-linejoin:round;stroke-miterlimit:4;stroke-dasharray:none;stroke-opacity:1"/><path d="M-11 2a9 9 0 1 0 0 18 9 9 0 0 0 0-18m0 1.125a7.875 7.875 0 1 1 0 15.75 7.875 7.875 0 0 1 0-15.75m0 0" style="fill:#fff;fill-opacity:1;stroke-width:1.125"/><rect width="15.75" height="15.75" x="-18.875" y="3.125" rx="7.875" ry="7.875" style="fill:#a3be8c;fill-opacity:.75;stroke:none;stroke-width:.39374"/><path fill-rule="evenodd" d="m-11.004 6-.028.002a.3.3 0 0 0-.17.077l-3.712 3.465a.26.26 0 0 0-.086.189c0 .07.03.139.084.19s.127.077.203.077h7.426c.076 0 .15-.027.203-.078A.26.26 0 0 0-7 9.732c0-.07-.03-.139-.085-.189l-3.714-3.464A.3.3 0 0 0-11.005 6z" style="fill:#fefefe;fill-opacity:.8;stroke-width:.0157624"/><path fill-rule="evenodd" d="m-10.995 16 .028-.002a.3.3 0 0 0 .169-.077l3.713-3.464a.26.26 0 0 0 .085-.19c0-.07-.03-.139-.084-.19A.3.3 0 0 0-7.287 12h-7.425a.3.3 0 0 0-.204.078.26.26 0 0 0-.084.19c0 .07.031.139.085.189l3.714 3.464c.055.051.129.08.206.078z" style="fill:#fefefe;fill-opacity:.8;stroke-width:.0157622"/></g></svg>