<svg xmlns="http://www.w3.org/2000/svg" width="20.169" height="20.169"><path d="M462.873 899.089c242.901 0 439.815-196.912 439.815-439.82S705.774 19.45 462.873 19.45C219.964 19.45 23.05 216.362 23.05 459.27s196.914 439.819 439.823 439.819" style="fill:#f55;fill-opacity:1;fill-rule:evenodd;stroke:#f55;stroke-width:32.2326;stroke-miterlimit:4;stroke-dasharray:none;stroke-opacity:1" transform="matrix(.02212 0 0 -.02212 -.153 20.243)"/><path d="m246.821 299.191 376.412 376.413c14.568 14.567 38.4 14.567 52.975 0l.697-.704c14.57-14.566 14.57-38.4.004-52.97L300.496 245.52c-14.57-14.57-38.404-14.57-52.97 0l-.705.696c-14.567 14.57-14.567 38.408 0 52.974" style="fill:#9f1d2b;fill-opacity:1;fill-rule:evenodd;stroke:none;stroke-width:1.06667" transform="matrix(.02212 0 0 -.02212 -.153 20.243)"/><path d="m300.496 675.604 376.409-376.413c14.566-14.566 14.566-38.404 0-52.97l-.701-.7c-14.57-14.57-38.403-14.57-52.97 0L246.82 621.93c-14.571 14.57-14.571 38.404 0 52.975l.7.7c14.57 14.57 38.404 14.57 52.975 0" style="fill:#9f1d2b;fill-opacity:1;fill-rule:evenodd;stroke:none;stroke-width:1.06667" transform="matrix(.02212 0 0 -.02212 -.153 20.243)"/></svg>