<svg xmlns="http://www.w3.org/2000/svg" width="20.169" height="20.169"><path d="M461.867 10.287c251.796 0 455.92 204.126 455.92 455.921 0 251.8-204.124 455.925-455.92 455.925-251.804 0-455.93-204.124-455.93-455.925 0-251.795 204.126-455.92 455.93-455.92" style="fill:#f55;fill-opacity:1;fill-rule:evenodd;stroke:none;stroke-width:1.06667" transform="matrix(.02212 0 0 -.02212 -.131 20.396)"/><path d="M461.867 49.063c230.378 0 417.141 186.766 417.141 417.145 0 230.388-186.763 417.15-417.141 417.15-230.388 0-417.15-186.762-417.15-417.15 0-230.379 186.762-417.145 417.15-417.145" style="fill:#f55;fill-opacity:1;fill-rule:evenodd;stroke:none;stroke-width:1.06667" transform="matrix(.02212 0 0 -.02212 -.131 20.396)"/><path d="M246.821 304.842 623.233 681.25c14.568 14.57 38.4 14.57 52.975 0l.697-.7c14.57-14.567 14.57-38.404.004-52.971L300.496 251.17c-14.57-14.57-38.404-14.57-52.97 0l-.705.696c-14.567 14.57-14.567 38.404 0 52.975" style="fill:#9f1d2b;fill-opacity:1;fill-rule:evenodd;stroke:none;stroke-width:1.06667" transform="matrix(.02212 0 0 -.02212 -.131 20.396)"/><path d="m300.496 681.25 376.409-376.408c14.566-14.567 14.566-38.405 0-52.975l-.701-.696c-14.57-14.57-38.403-14.57-52.97 0L246.82 627.58c-14.571 14.567-14.571 38.404 0 52.971l.7.7c14.57 14.57 38.404 14.57 52.975 0" style="fill:#9f1d2b;fill-opacity:1;fill-rule:evenodd;stroke:none;stroke-width:1.06667" transform="matrix(.02212 0 0 -.02212 -.131 20.396)"/></svg>