<svg xmlns="http://www.w3.org/2000/svg" width="20.169" height="20.169"><path d="M531.846 2.93c251.802 0 455.932 204.13 455.932 455.934s-204.13 455.934-455.932 455.934c-251.81 0-455.94-204.129-455.94-455.934 0-251.804 204.13-455.933 455.94-455.933" style="fill:#50fa7b;fill-opacity:1;fill-rule:evenodd;stroke:none;stroke-width:.824346" transform="matrix(.02212 0 0 -.02212 -1.679 20.234)"/><path d="M531.845 35.497c233.818 0 423.366 189.551 423.366 423.369S765.663 882.23 531.845 882.23c-233.823 0-423.371-189.547-423.371-423.365s189.548-423.37 423.37-423.37" style="fill:#50fa7b;fill-opacity:1;fill-rule:evenodd;stroke:none;stroke-width:.824346" transform="matrix(.02212 0 0 -.02212 -1.679 20.234)"/><g style="fill:#432f52;fill-opacity:1"><path d="M317.364 650.001h267.199c35.579 0 64.692-29.113 64.692-64.695V318.11zm232.324-436.21H281.435c-35.583 0-64.692 29.108-64.692 64.69v268.254z" style="fill:#432f52;fill-opacity:1;fill-rule:evenodd;stroke:none" transform="matrix(.02394 0 0 -.02394 -.414 20.19)"/></g></svg>