<svg xmlns="http://www.w3.org/2000/svg" width="20.169" height="20.169"><path d="M538.338-2.72c251.803 0 455.932 204.13 455.932 455.934 0 251.807-204.13 455.936-455.932 455.936-251.81 0-455.94-204.13-455.94-455.936S286.529-2.72 538.339-2.72" style="fill:#50fa7b;fill-opacity:1;fill-rule:evenodd;stroke:none;stroke-width:.824348" transform="matrix(.02212 0 0 -.02212 -1.823 20.109)"/><path d="M538.337 29.846c233.818 0 423.366 189.552 423.366 423.37 0 233.82-189.548 423.368-423.366 423.368-233.823 0-423.371-189.548-423.371-423.368 0-233.818 189.548-423.37 423.37-423.37" style="fill:#50fa7b;fill-opacity:1;fill-rule:evenodd;stroke:none;stroke-width:.824348" transform="matrix(.02212 0 0 -.02212 -1.823 20.109)"/><g style="fill:#432f52;fill-opacity:1"><path d="M317.364 650.001h267.199c35.579 0 64.692-29.113 64.692-64.695V318.11zm232.324-436.21H281.435c-35.583 0-64.692 29.108-64.692 64.69v268.254z" style="fill:#432f52;fill-opacity:1;fill-rule:evenodd;stroke:none" transform="matrix(.02394 0 0 -.02394 -.414 20.19)"/></g></svg>