<svg xmlns="http://www.w3.org/2000/svg" width="20.169" height="20.169"><path d="M461.904 2.08c251.8 0 455.925 204.124 455.925 455.924 0 251.797-204.124 455.921-455.925 455.921-251.8 0-455.925-204.124-455.925-455.92C5.98 206.203 210.105 2.078 461.904 2.078" style="fill:#f1fa8c;fill-opacity:1;fill-rule:evenodd;stroke:none;stroke-width:1.06667" transform="matrix(.02212 0 0 -.02212 -.132 20.215)"/><path d="M461.904 40.854c230.384 0 417.146 186.763 417.146 417.15 0 230.383-186.762 417.146-417.146 417.146-230.383 0-417.15-186.763-417.15-417.146 0-230.387 186.767-417.15 417.15-417.15" style="fill:#f1fa8c;fill-opacity:1;fill-rule:evenodd;stroke:none;stroke-width:1.06667" transform="matrix(.02212 0 0 -.02212 -.132 20.215)"/><path d="m193.118 457.997 537.567.01" style="opacity:.9;fill:#cd6e19;fill-opacity:1;fill-rule:evenodd;stroke:#975616;stroke-width:71.846;stroke-linecap:round;stroke-linejoin:miter;stroke-miterlimit:4;stroke-dasharray:none;stroke-opacity:1" transform="matrix(.02212 0 0 -.02212 -.132 20.215)"/></svg>