<svg xmlns="http://www.w3.org/2000/svg" width="20.169" height="20.169"><g style="fill:#5b5c63;fill-opacity:1"><path d="M456.39-18.35c251.806 0 455.935 204.126 455.935 455.935 0 251.802-204.13 455.932-455.935 455.932C204.584 893.517.454 689.387.454 437.585c0-251.81 204.13-455.935 455.936-455.935" style="fill:#5b5c63;fill-opacity:1;fill-rule:evenodd;stroke:none;stroke-width:1.06669" transform="matrix(.02212 0 0 -.02212 -.01 19.763)"/><path d="M456.39 20.425c230.389 0 417.159 186.768 417.159 417.16 0 230.384-186.77 417.156-417.16 417.156-230.388 0-417.159-186.772-417.159-417.156 0-230.392 186.771-417.16 417.16-417.16" style="fill:#5b5c63;fill-opacity:1;fill-rule:evenodd;stroke:none;stroke-width:1.06669" transform="matrix(.02212 0 0 -.02212 -.01 19.763)"/></g></svg>