<svg xmlns="http://www.w3.org/2000/svg" width="20.169" height="20.169"><path d="M461.253.342C713.06.342 917.19 204.472 917.19 456.28c0 251.803-204.13 455.934-455.936 455.934S5.318 708.084 5.318 456.28C5.318 204.472 209.448.342 461.253.342" style="fill:#f1fa8c;fill-opacity:1;fill-rule:evenodd;stroke:none;stroke-width:.824346" transform="matrix(.02212 0 0 -.02212 -.118 20.177)"/><path d="M461.255 32.909c233.82 0 423.365 189.548 423.365 423.371 0 233.82-189.546 423.367-423.365 423.367-233.817 0-423.369-189.548-423.369-423.367 0-233.823 189.552-423.371 423.37-423.371" style="fill:#f1fa8c;fill-opacity:1;fill-rule:evenodd;stroke:none;stroke-width:.824346" transform="matrix(.02212 0 0 -.02212 -.118 20.177)"/></svg>