<svg xmlns="http://www.w3.org/2000/svg" width="20.169" height="20.169"><path d="M464.887 10.287c251.804 0 455.93 204.126 455.93 455.921 0 251.8-204.126 455.925-455.93 455.925-251.799 0-455.925-204.124-455.925-455.925 0-251.795 204.126-455.92 455.925-455.92" style="fill:#f1fa8c;fill-opacity:1;fill-rule:evenodd;stroke:none;stroke-width:1.06667" transform="matrix(.02212 0 0 -.02212 -.198 20.396)"/><path d="M464.887 49.063c230.388 0 417.15 186.766 417.15 417.145 0 230.388-186.762 417.15-417.15 417.15-230.382 0-417.145-186.762-417.145-417.15 0-230.379 186.763-417.145 417.145-417.145" style="fill:#f1fa8c;fill-opacity:1;fill-rule:evenodd;stroke:none;stroke-width:1.06667" transform="matrix(.02212 0 0 -.02212 -.198 20.396)"/><path d="m196.105 466.205 537.57.01" style="opacity:.9;fill:#cd6e19;fill-opacity:1;fill-rule:evenodd;stroke:#975616;stroke-width:71.8461;stroke-linecap:round;stroke-linejoin:miter;stroke-miterlimit:4;stroke-dasharray:none;stroke-opacity:1" transform="matrix(.02212 0 0 -.02212 -.198 20.396)"/></svg>