<svg xmlns="http://www.w3.org/2000/svg" width="20.169" height="20.169"><g style="fill:#5b5c63;fill-opacity:1"><path d="M325.187 181.83c251.806 0 455.936 204.127 455.936 455.937 0 251.802-204.13 455.931-455.936 455.931s-455.935-204.13-455.935-455.931c0-251.81 204.13-455.936 455.935-455.936" style="fill:#5b5c63;fill-opacity:1;fill-rule:evenodd;stroke:none;stroke-width:1.06669" transform="matrix(.02212 0 0 -.02212 2.892 24.19)"/><path d="M325.187 220.607c230.39 0 417.16 186.767 417.16 417.16 0 230.384-186.77 417.155-417.16 417.155-230.388 0-417.16-186.771-417.16-417.155 0-230.393 186.772-417.16 417.16-417.16" style="fill:#5b5c63;fill-opacity:1;fill-rule:evenodd;stroke:none;stroke-width:1.06669" transform="matrix(.02212 0 0 -.02212 2.892 24.19)"/></g></svg>