<svg xmlns="http://www.w3.org/2000/svg" width="20.169" height="20.169"><g style="fill:#5b5c63;fill-opacity:1"><path d="M-419.917 788.749c251.807 0 455.936 204.126 455.936 455.935 0 251.803-204.13 455.932-455.936 455.932s-455.935-204.13-455.935-455.932c0-251.81 204.13-455.935 455.935-455.935" style="fill:#5b5c63;fill-opacity:1;fill-rule:evenodd;stroke:none;stroke-width:1.06669" transform="matrix(.02212 0 0 -.02212 19.372 37.615)"/><path d="M-419.917 827.525c230.39 0 417.16 186.767 417.16 417.16 0 230.383-186.77 417.155-417.16 417.155-230.388 0-417.16-186.772-417.16-417.156 0-230.392 186.772-417.16 417.16-417.16" style="fill:#5b5c63;fill-opacity:1;fill-rule:evenodd;stroke:none;stroke-width:1.06669" transform="matrix(.02212 0 0 -.02212 19.372 37.615)"/></g></svg>