<svg xmlns="http://www.w3.org/2000/svg" width="20.169" height="20.169"><g style="fill:#50fa7b;fill-opacity:1"><path d="M486.806.503c251.8 0 455.93 204.13 455.93 455.935 0 251.807-204.13 455.936-455.93 455.936-251.808 0-455.938-204.13-455.938-455.936S234.998.503 486.806.503" style="fill:#50fa7b;fill-opacity:1;fill-rule:evenodd;stroke:none;stroke-width:.824346" transform="matrix(.02212 0 0 -.02212 -.683 20.18)"/><path d="M486.804 33.07c233.818 0 423.365 189.551 423.365 423.37S720.622 879.808 486.804 879.808c-233.822 0-423.369-189.548-423.369-423.368 0-233.819 189.547-423.37 423.37-423.37" style="fill:#50fa7b;fill-opacity:1;fill-rule:evenodd;stroke:none;stroke-width:.824346" transform="matrix(.02212 0 0 -.02212 -.683 20.18)"/></g></svg>