<?xml version="1.0" encoding="UTF-8" standalone="no"?>
<svg
   width="22"
   height="22"
   enable-background="new"
   version="1.1"
   id="svg5"
   xmlns="http://www.w3.org/2000/svg"
   xmlns:svg="http://www.w3.org/2000/svg">
  <defs
     id="defs5" />
  <g
     id="pressed-center"
     transform="translate(-46)">
    <rect
       x="46"
       width="22"
       height="22"
       fill="#000000"
       opacity="0.00100002"
       id="rect3"
       y="0" />
    <circle
       cx="57"
       cy="11"
       r="11"
       fill="#d35f5f"
       id="circle3" />
    <path
       d="m 61.596,6.4038 c -0.19587,-0.19587 -0.51124,-0.19587 -0.70711,0 l -3.8891,3.8891 -3.8891,-3.8891 c -0.19587,-0.19587 -0.51124,-0.19587 -0.70711,0 -0.19587,0.19587 -0.19587,0.51124 0,0.70711 l 3.8891,3.8891 -3.8891,3.8891 c -0.19587,0.19587 -0.19587,0.51124 0,0.70711 0.19587,0.19587 0.51124,0.19587 0.70711,0 l 3.8891,-3.8891 3.8891,3.8891 c 0.19587,0.19587 0.51124,0.19587 0.70711,0 0.19587,-0.19587 0.19587,-0.51124 0,-0.70711 l -3.8891,-3.8891 3.8891,-3.8891 c 0.19587,-0.19587 0.19587,-0.51124 0,-0.70711 z"
       fill="#ffffff"
       stroke-linecap="round"
       stroke-linejoin="round"
       stroke-opacity="0.08"
       style="paint-order:stroke markers fill"
       id="path3" />
  </g>
</svg>
