<?xml version="1.0" encoding="UTF-8" standalone="no"?>
<svg
   width="22"
   height="22"
   enable-background="new"
   version="1.1"
   id="svg5"
   xmlns="http://www.w3.org/2000/svg"
   xmlns:svg="http://www.w3.org/2000/svg">
  <defs
     id="defs5" />
  <g
     id="deactivated-center"
     opacity="0.35">
    <rect
       width="22"
       height="22"
       fill="#000000"
       opacity="0.00100002"
       id="rect5"
       x="0"
       y="0" />
    <path
       d="M 8,6 C 6.892,6 6,6.892 6,8 v 6 c 0,1.108 0.892,2 2,2 h 6 c 1.108,0 2,-0.892 2,-2 V 8 C 16,6.892 15.108,6 14,6 Z m 0,1 h 6 c 0.554,0 1,0.446 1,1 v 6 c 0,0.554 -0.446,1 -1,1 H 8 C 7.446,15 7,14.554 7,14 V 8 C 7,7.446 7.446,7 8,7 Z"
       fill="#dedede"
       opacity="1"
       stroke-linecap="round"
       stroke-linejoin="round"
       stroke-opacity="0.08"
       style="paint-order:stroke markers fill"
       id="path5" />
  </g>
</svg>
