<?xml version="1.0" encoding="UTF-8" standalone="no"?>
<svg
   width="22"
   height="22"
   enable-background="new"
   version="1.1"
   id="svg5"
   xmlns="http://www.w3.org/2000/svg"
   xmlns:svg="http://www.w3.org/2000/svg">
  <defs
     id="defs5" />
  <g
     id="deactivated-center"
     opacity="0.35">
    <rect
       width="22"
       height="22"
       fill="#000000"
       opacity="0.00100002"
       id="rect5"
       x="0"
       y="0" />
    <path
       d="M 10,6 C 9.25722,6 8.6126,6.40192 8.2676,7 H 12 c 1.662,0 3,1.338 3,3 v 3.7324 C 15.59808,13.38742 16,12.74275 16,12 V 10 C 16,7.784 14.216,6 12,6 Z M 8,8 C 6.892,8 6,8.892 6,10 v 4 c 0,1.108 0.892,2 2,2 h 4 c 1.108,0 2,-0.892 2,-2 V 10 C 14,8.892 13.108,8 12,8 Z m 0,1 h 4 c 0.554,0 1,0.446 1,1 v 4 c 0,0.554 -0.446,1 -1,1 H 8 C 7.446,15 7,14.554 7,14 V 10 C 7,9.446 7.446,9 8,9 Z"
       fill="#dedede"
       opacity="1"
       stroke-linecap="round"
       stroke-linejoin="round"
       stroke-opacity="0.08"
       style="paint-order:stroke markers fill"
       id="path5" />
  </g>
</svg>
