<?xml version="1.0" encoding="UTF-8" standalone="no"?>
<svg
   width="22"
   height="22"
   enable-background="new"
   version="1.1"
   id="svg5"
   xmlns="http://www.w3.org/2000/svg"
   xmlns:svg="http://www.w3.org/2000/svg">
  <defs
     id="defs5" />
  <g
     id="hover-center"
     transform="translate(-23)">
    <rect
       x="23"
       width="22"
       height="22"
       fill="#000000"
       opacity="0.00100002"
       id="rect2"
       y="0" />
    <circle
       cx="34"
       cy="11"
       r="11"
       fill="#ffffff"
       opacity="0.15"
       id="circle2" />
    <path
       d="M 33,6 C 32.25722,6 31.6126,6.40192 31.2676,7 H 35 c 1.662,0 3,1.338 3,3 v 3.7324 C 38.59808,13.38742 39,12.74275 39,12 V 10 C 39,7.784 37.216,6 35,6 Z m -2,2 c -1.108,0 -2,0.892 -2,2 v 4 c 0,1.108 0.892,2 2,2 h 4 c 1.108,0 2,-0.892 2,-2 V 10 C 37,8.892 36.108,8 35,8 Z m 0,1 h 4 c 0.554,0 1,0.446 1,1 v 4 c 0,0.554 -0.446,1 -1,1 h -4 c -0.554,0 -1,-0.446 -1,-1 v -4 c 0,-0.554 0.446,-1 1,-1 z"
       fill="#dedede"
       stroke-linecap="round"
       stroke-linejoin="round"
       stroke-opacity="0.08"
       style="paint-order:stroke markers fill"
       id="path2" />
  </g>
</svg>
