<svg xmlns="http://www.w3.org/2000/svg" width="44" height="28"><path d="M.529-19.844h10.054v8.467H.529z" class="ColorScheme-Text" style="color:#232629;opacity:.1;fill:#fff;fill-opacity:1" transform="matrix(4.3763 0 0 3.30709 -2.316 65.625)"/><path d="M27.517-25.135h5.821v5.821h-5.821z" style="opacity:.003;fill:#000;fill-opacity:1;stroke-width:.220007" transform="translate(-93 98)scale(3.77953)"/><path d="M30.163-23.548a.53.53 0 0 0-.457.265h1.25c.293 0 .53.236.53.529v1.25a.53.53 0 0 0 .264-.456v-.794a.79.79 0 0 0-.794-.794zm-.53.53a.53.53 0 0 0-.529.528v1.059c0 .293.236.529.53.529h1.058c.293 0 .529-.236.529-.53v-1.058a.53.53 0 0 0-.53-.529zm0 .264h1.059c.146 0 .264.118.264.264v1.059a.264.264 0 0 1-.264.264h-1.059a.264.264 0 0 1-.264-.264v-1.059c0-.146.118-.264.264-.264" class="ColorScheme-Text" style="color:#232629;fill:#fff;fill-opacity:1" transform="translate(-93 98)scale(3.77953)"/><path d="M.529-19.844h10.054v8.467H.529z" class="ColorScheme-Text" style="color:#232629;opacity:.25;fill:#fff;fill-opacity:1" transform="matrix(4.3763 0 0 3.30709 -2.316 93.625)"/><path d="M27.517-25.135h5.821v5.821h-5.821z" style="opacity:.003;fill:#000;fill-opacity:1;stroke-width:.220007" transform="translate(-93 126)scale(3.77953)"/><path d="M30.163-23.548a.53.53 0 0 0-.457.265h1.25c.293 0 .53.236.53.529v1.25a.53.53 0 0 0 .264-.456v-.794a.79.79 0 0 0-.794-.794zm-.53.53a.53.53 0 0 0-.529.528v1.059c0 .293.236.529.53.529h1.058c.293 0 .529-.236.529-.53v-1.058a.53.53 0 0 0-.53-.529zm0 .264h1.059c.146 0 .264.118.264.264v1.059a.264.264 0 0 1-.264.264h-1.059a.264.264 0 0 1-.264-.264v-1.059c0-.146.118-.264.264-.264" class="ColorScheme-Text" style="color:#232629;fill:#fff;fill-opacity:1" transform="translate(-93 126)scale(3.77953)"/></svg>