<svg xmlns="http://www.w3.org/2000/svg" width="22" height="22"><path d="M0 0h22v22H0z" style="opacity:.00100002;fill:#050505;fill-opacity:1;stroke-width:1.001"/><rect width="18.732" height="16.732" x="1.634" y="2.634" rx="2.498" ry="2.574" style="color:#000;display:inline;overflow:visible;visibility:visible;opacity:1;fill:#bf616a;fill-opacity:.501961;stroke:#4e4e7e;stroke-width:1.26774;stroke-opacity:.01;marker:none"/><path d="M7.143 15.5a.643.643 0 0 1-.455-1.097l7.715-7.715a.643.643 0 1 1 .909.91l-7.715 7.714a.64.64 0 0 1-.454.188" style="fill:#fff;fill-opacity:1;stroke-width:.642857"/><path d="M14.857 15.5a.64.64 0 0 1-.454-.188L6.688 7.597a.643.643 0 1 1 .91-.909l7.714 7.715a.643.643 0 0 1-.455 1.097" style="fill:#fff;fill-opacity:1;stroke-width:.642857"/></svg>