<svg xmlns="http://www.w3.org/2000/svg" width="22" height="22"><path d="M0 0h22v22H0z" style="opacity:.00100002;fill:#000;fill-opacity:1;fill-rule:nonzero;stroke:none;stroke-width:2;stroke-linecap:round;stroke-linejoin:round;stroke-miterlimit:4;stroke-dasharray:none;stroke-opacity:1"/><rect width="18.732" height="16.732" x="1.634" y="2.634" rx="2.498" ry="2.574" style="color:#000;display:inline;overflow:visible;visibility:visible;fill:#a3be8c;fill-opacity:.501961;stroke:#4e4e7e;stroke-width:1.26774;stroke-opacity:.01;marker:none"/><path d="M4.982 10a.48.48 0 0 1 .342.142l5.693 5.693 5.694-5.693a.483.483 0 0 1 .682.682l-6.035 6.035a.483.483 0 0 1-.682 0l-6.035-6.035A.483.483 0 0 1 4.982 10" style="fill:#fff;fill-opacity:1;stroke-width:.160926"/><path d="M17.04 12a.48.48 0 0 1-.34-.142l-5.694-5.693-5.694 5.693a.483.483 0 0 1-.682-.682l6.034-6.035a.483.483 0 0 1 .683 0l6.035 6.035a.483.483 0 0 1-.342.824" style="fill:#fff;fill-opacity:1;stroke-width:.160926"/></svg>