<svg xmlns="http://www.w3.org/2000/svg" id="svg4306" width="22" height="22"><style id="current-color-scheme" type="text/css">.ColorScheme-Text{color:#232629}.ColorScheme-NegativeText{color:#da4453}</style><g id="deactivated-center" transform="translate(22 -22)"><path id="rect953-2-8" d="M0 0h22v22H0z" style="opacity:.003;fill:#050505;fill-opacity:1;stroke-width:1.001"/><path id="path867-5-3-3-6-6-7" d="M10.99 2A9 9 0 0 0 2 11a9 9 0 0 0 9 9 9 9 0 0 0 9-9 9 9 0 0 0-9-9zM7.287 6.58 11 10.293l3.713-3.713.707.707L11.707 11l3.713 3.713-.707.707L11 11.707 7.287 15.42l-.707-.707L10.293 11 6.58 7.287Z" class="ColorScheme-Text" style="opacity:.3;fill:#232627;fill-opacity:1"/></g><g id="hover-center" transform="translate(-22 -22)"><path id="rect953-2-7-2" d="M0 0h22v22H0z" style="opacity:.003;fill:#050505;fill-opacity:1;stroke-width:1.001"/><path id="path1158" d="M10.99 2A9 9 0 0 0 2 11a9 9 0 0 0 9 9 9 9 0 0 0 9-9 9 9 0 0 0-9-9zM7.287 6.58 11 10.293l3.713-3.713.707.707L11.707 11l3.713 3.713-.707.707L11 11.707 7.287 15.42l-.707-.707L10.293 11 6.58 7.287Z" class="ColorScheme-NegativeText" style="opacity:1;fill:currentColor"/><path id="path867-5-3-3-6-6-9-8" d="M10.99 2A9 9 0 0 0 2 11a9 9 0 0 0 9 9 9 9 0 0 0 9-9 9 9 0 0 0-9-9zM7.287 6.58 11 10.293l3.713-3.713.707.707L11.707 11l3.713 3.713-.707.707L11 11.707 7.287 15.42l-.707-.707L10.293 11 6.58 7.287Z" class="ColorScheme-Text" style="opacity:.4;fill:#232627;fill-opacity:1"/></g><g id="pressed-center" transform="translate(0 -22)"><path id="rect953-2-7-6" d="M0 0h22v22H0z" style="opacity:.003;fill:#050505;fill-opacity:1;stroke-width:1.001"/><path id="path867-5-3-3-6-6-9-7" d="M10.99 2A9 9 0 0 0 2 11a9 9 0 0 0 9 9 9 9 0 0 0 9-9 9 9 0 0 0-9-9zM7.287 6.58 11 10.293l3.713-3.713.707.707L11.707 11l3.713 3.713-.707.707L11 11.707 7.287 15.42l-.707-.707L10.293 11 6.58 7.287Z" class="ColorScheme-NegativeText" style="opacity:1;fill:currentColor"/></g><g id="pressed-inactive-center"><path id="rect953-2-7-6-5" d="M0 0h22v22H0z" style="opacity:.003;fill:#050505;fill-opacity:1;stroke-width:1.001"/><path id="path867-5-3-3-6-6-9-7-6" d="M10.99 2A9 9 0 0 0 2 11a9 9 0 0 0 9 9 9 9 0 0 0 9-9 9 9 0 0 0-9-9zM7.287 6.58 11 10.293l3.713-3.713.707.707L11.707 11l3.713 3.713-.707.707L11 11.707 7.287 15.42l-.707-.707L10.293 11 6.58 7.287Z" class="ColorScheme-NegativeText" style="opacity:1;fill:currentColor"/></g><g id="deactivated-inactive-center" transform="translate(22)"><path id="rect953-2-8-9" d="M0 0h22v22H0z" style="opacity:.003;fill:#050505;fill-opacity:1;stroke-width:1.001"/><path id="path867-5-3-3-6-6-7-1" d="M10.99 2A9 9 0 0 0 2 11a9 9 0 0 0 9 9 9 9 0 0 0 9-9 9 9 0 0 0-9-9zM7.287 6.58 11 10.293l3.713-3.713.707.707L11.707 11l3.713 3.713-.707.707L11 11.707 7.287 15.42l-.707-.707L10.293 11 6.58 7.287Z" class="ColorScheme-Text" style="opacity:.3;fill:#898e92;fill-opacity:1"/></g><g id="hover-inactive-center" transform="translate(-22)"><path id="rect953-2-7-2-7" d="M0 0h22v22H0z" style="opacity:.003;fill:#050505;fill-opacity:1;stroke-width:1.001"/><path id="path1158-0" d="M10.99 2A9 9 0 0 0 2 11a9 9 0 0 0 9 9 9 9 0 0 0 9-9 9 9 0 0 0-9-9zM7.287 6.58 11 10.293l3.713-3.713.707.707L11.707 11l3.713 3.713-.707.707L11 11.707 7.287 15.42l-.707-.707L10.293 11 6.58 7.287Z" class="ColorScheme-NegativeText" style="opacity:1;fill:currentColor"/><path id="path867-5-3-3-6-6-9-8-9" d="M10.99 2A9 9 0 0 0 2 11a9 9 0 0 0 9 9 9 9 0 0 0 9-9 9 9 0 0 0-9-9zM7.287 6.58 11 10.293l3.713-3.713.707.707L11.707 11l3.713 3.713-.707.707L11 11.707 7.287 15.42l-.707-.707L10.293 11 6.58 7.287Z" class="ColorScheme-Text" style="opacity:.4;fill:#898e92;fill-opacity:1"/></g></svg>