<svg xmlns="http://www.w3.org/2000/svg" id="svg4306" width="22" height="22"><style id="current-color-scheme" type="text/css">.ColorScheme-Text{color:#232629}</style><g id="active-center"><path id="rect4266" d="M0 0h22v22H0z" style="opacity:.00100002;fill:#000;fill-opacity:1;fill-rule:nonzero;stroke:none;stroke-width:2;stroke-linecap:round;stroke-linejoin:round;stroke-miterlimit:4;stroke-dasharray:none;stroke-opacity:1"/><circle id="path867-5-6-5" cx="11" cy="11" r="9" style="opacity:.003;fill:#000;fill-opacity:1;stroke-width:1.001"/><path id="rect909-7-3-7-3-5-2-0" d="m16.657 8.995-.707-.707-4.95 4.95-4.95-4.95-.707.707L11 14.652Z" class="ColorScheme-Text" style="opacity:1;fill:#232627;fill-opacity:1"/></g><g id="hover-center" transform="translate(22)"><path id="rect4266-3" d="M0 0h22v22H0z" style="opacity:.00100002;fill:#000;fill-opacity:1;fill-rule:nonzero;stroke:none;stroke-width:2;stroke-linecap:round;stroke-linejoin:round;stroke-miterlimit:4;stroke-dasharray:none;stroke-opacity:1"/><path id="path867-5-6-5-6" d="M32.99 2A9 9 0 0 0 24 11a9 9 0 0 0 9 9 9 9 0 0 0 9-9 9 9 0 0 0-9-9zm-4.94 6.287L33 13.238l4.95-4.95.706.706L33 14.652l-5.656-5.658Z" class="ColorScheme-Text" style="fill:#232627;fill-opacity:1" transform="translate(-22)"/></g><g id="inactive-center" transform="translate(0 22)"><path id="rect4266-9" d="M0 0h22v22H0z" style="opacity:.00100002;fill:#000;fill-opacity:1;fill-rule:nonzero;stroke:none;stroke-width:2;stroke-linecap:round;stroke-linejoin:round;stroke-miterlimit:4;stroke-dasharray:none;stroke-opacity:1"/><circle id="path867-5-6-5-1" cx="11" cy="11" r="9" style="opacity:.003;fill:#000;fill-opacity:1;stroke-width:1.001"/><path id="rect909-7-3-7-3-5-2-0-2" d="m16.657 8.995-.707-.707-4.95 4.95-4.95-4.95-.707.707L11 14.652Z" class="ColorScheme-Text" style="opacity:1;fill:#898e92;fill-opacity:1"/></g><g id="hover-inactive-center" transform="translate(22 22)"><path id="rect4266-3-67" d="M0 0h22v22H0z" style="opacity:.00100002;fill:#000;fill-opacity:1;fill-rule:nonzero;stroke:none;stroke-width:2;stroke-linecap:round;stroke-linejoin:round;stroke-miterlimit:4;stroke-dasharray:none;stroke-opacity:1"/><path id="path867-5-6-5-6-5" d="M32.99 2A9 9 0 0 0 24 11a9 9 0 0 0 9 9 9 9 0 0 0 9-9 9 9 0 0 0-9-9zm-4.94 6.287L33 13.238l4.95-4.95.706.706L33 14.652l-5.656-5.658Z" class="ColorScheme-Text" style="fill:#898e92;fill-opacity:1" transform="translate(-22)"/></g></svg>