<svg xmlns="http://www.w3.org/2000/svg" id="svg4306" width="22" height="22"><style id="current-color-scheme" type="text/css">.ColorScheme-Text{color:#232629}</style><g id="deactivated-center" transform="rotate(180 11 11)"><path id="rect4266-5" d="M0 0h22v22H0z" style="opacity:.00100002;fill:#000;fill-opacity:1;fill-rule:nonzero;stroke:none;stroke-width:2;stroke-linecap:round;stroke-linejoin:round;stroke-miterlimit:4;stroke-dasharray:none;stroke-opacity:1"/><circle id="path867-5-6-5-9" cx="11" cy="11" r="9" style="opacity:.003;fill:#000;fill-opacity:1;stroke-width:1.001"/><path id="rect909-7-3-7-3-5-2-0-22" d="m11 16.652 5.656-5.656L11 5.338l-5.656 5.658Zm0-1.414-4.242-4.242L11 6.752l4.242 4.244Z" class="ColorScheme-Text" style="opacity:.3;fill:#232627;fill-opacity:1"/></g><g id="pressed-center" transform="rotate(180 0 11)"><path id="rect4266-6-5" d="M0 0h22v22H0z" style="opacity:.00100002;fill:#000;fill-opacity:1;fill-rule:nonzero;stroke:none;stroke-width:2;stroke-linecap:round;stroke-linejoin:round;stroke-miterlimit:4;stroke-dasharray:none;stroke-opacity:1"/><path id="path867-5-6-5-7-6" d="M33 2a9 9 0 1 0 0 18 9 9 0 0 0 0-18m0 3.348 5.656 5.656L33 16.662l-5.656-5.658Zm0 1.414-4.242 4.242L33 15.248l4.242-4.244Z" class="ColorScheme-Text" style="opacity:.3;fill:#232627;fill-opacity:1" transform="rotate(180 22 11)"/></g><g id="pressed-inactive-center" transform="rotate(180 0 22)"><path id="rect4266-6-5-3" d="M0 0h22v22H0z" style="opacity:.00100002;fill:#000;fill-opacity:1;fill-rule:nonzero;stroke:none;stroke-width:2;stroke-linecap:round;stroke-linejoin:round;stroke-miterlimit:4;stroke-dasharray:none;stroke-opacity:1"/><path id="path867-5-6-5-7-6-5" d="M33 2a9 9 0 1 0 0 18 9 9 0 0 0 0-18m0 3.348 5.656 5.656L33 16.662l-5.656-5.658Zm0 1.414-4.242 4.242L33 15.248l4.242-4.244Z" class="ColorScheme-Text" style="opacity:.3;fill:#898e92;fill-opacity:.997865" transform="rotate(180 22 11)"/></g><g id="deactivated-inactive-center" transform="rotate(180 11 22)"><path id="rect4266-5-2" d="M0 0h22v22H0z" style="opacity:.00100002;fill:#000;fill-opacity:1;fill-rule:nonzero;stroke:none;stroke-width:2;stroke-linecap:round;stroke-linejoin:round;stroke-miterlimit:4;stroke-dasharray:none;stroke-opacity:1"/><circle id="path867-5-6-5-9-9" cx="11" cy="11" r="9" style="opacity:.003;fill:#000;fill-opacity:1;stroke-width:1.001"/><path id="rect909-7-3-7-3-5-2-0-22-1" d="m11 16.652 5.656-5.656L11 5.338l-5.656 5.658Zm0-1.414-4.242-4.242L11 6.752l4.242 4.244Z" class="ColorScheme-Text" style="opacity:.3;fill:#898e92;fill-opacity:1"/></g></svg>