<svg xmlns="http://www.w3.org/2000/svg" width="16" height="16"><g style="display:inline"><path d="M12 1047.362a7 7 0 1 0 0-14 7 7 0 0 0 0 14" style="fill:#cb4e43;fill-opacity:1;fill-rule:evenodd;stroke:none" transform="translate(-4 -1032.362)"/><path d="M9.172 1037.534a1 1 0 0 0 0 1.414l1.414 1.414-1.414 1.414a1 1 0 0 0 0 1.415 1 1 0 0 0 1.414 0l1.414-1.415 1.414 1.415a1 1 0 0 0 1.414 0 1 1 0 0 0 0-1.415l-1.414-1.414 1.414-1.414a1 1 0 0 0 0-1.414 1 1 0 0 0-1.414 0L12 1038.948l-1.414-1.414a1 1 0 0 0-1.414 0" style="opacity:.5;fill:#000;fill-opacity:1;stroke:none;stroke-width:2;stroke-linecap:round;stroke-linejoin:round;stroke-miterlimit:4;stroke-dasharray:none;stroke-opacity:1" transform="translate(-4 -1032.362)"/></g></svg>