<svg xmlns="http://www.w3.org/2000/svg" width="16" height="16"><g style="display:inline"><path d="M326.222-210.418a7 7 0 1 0 0-14 7 7 0 0 0 0 14" style="fill:#20a932;fill-opacity:1;fill-rule:evenodd;stroke:none" transform="translate(-318.222 225.418)"/><path d="M326.222-210.918a6.5 6.5 0 1 0 0-13 6.5 6.5 0 0 0 0 13" style="opacity:1;fill:#28d33f;fill-opacity:1;fill-rule:evenodd;stroke:none" transform="translate(-318.222 225.418)"/><path d="M326.214-222.086v3.586c0 .416.584 1 1 1h3.586zM326.215-212.905v-3.586c0-.415-.585-1-1-1h-3.586z" style="opacity:.5;fill:#000;fill-opacity:1;stroke:none;stroke-width:2;stroke-linecap:round;stroke-linejoin:round;stroke-miterlimit:4;stroke-dasharray:none;stroke-opacity:1" transform="translate(-318.214 225.495)"/></g></svg>